<svg xmlns="http://www.w3.org/2000/svg" viewBox="0 0 171.73 189.03"><defs><style>.cls-1,.cls-4{fill:#f29123;}.cls-2{fill:#1f74b5;}.cls-3,.cls-4{isolation:isolate;}.cls-4{font-size:17px;font-family:SimplifiedArabic, Simplified Arabic;}</style></defs><title>logo</title><g id="Layer_2" data-name="Layer 2"><g id="Layer_1-2" data-name="Layer 1"><g id="Layer_2-2" data-name="Layer 2"><g id="Layer_1-2-2" data-name="Layer 1-2"><path class="cls-1" d="M83.36,0c7.77-.08,13.26,1.14,18.4,3.66A35.65,35.65,0,0,1,115,14.78a34.05,34.05,0,0,1,6.27,14.78,42.6,42.6,0,0,1-1.66,20.26A39,39,0,0,1,107.5,67.35c-3.38,2.89-6.81,5.73-10.15,8.65a21.51,21.51,0,0,0-5.53,7.2,14.57,14.57,0,0,0-1.22,6.37c.1,7.38-5.08,13.8-11.7,16.23a22.48,22.48,0,0,1-10.85,1c-5.62-.71-10.69-4.68-13.51-9.5a13.28,13.28,0,0,1-1.22-2.48,4.5,4.5,0,0,1-.2-2.64,3.84,3.84,0,0,1,4.09-2.68c3.08.37,3.45,3.44,4.91,5.55a11.2,11.2,0,0,0,5.8,4.28A12.36,12.36,0,0,0,76.25,99c4-1.59,6.53-4.8,6.49-9.26-.07-7.88,3.44-13.94,9-19,3-2.77,6.27-5.33,9.37-8a36.75,36.75,0,0,0,9.18-11.11,31.84,31.84,0,0,0,3.11-11.15,32.27,32.27,0,0,0-.26-9.46,27.86,27.86,0,0,0-40.4-19.39c-8.67,4.69-13.56,12-14.67,21.78a3.88,3.88,0,0,1-4,3.76l-.36,0a4.09,4.09,0,0,1-3.79-4.23,34,34,0,0,1,2.45-10.7A36.15,36.15,0,0,1,83.36,0Z"/><path class="cls-2" d="M72.12,45.72v2.15A1.1,1.1,0,0,0,73,49.14h0a15.76,15.76,0,0,1,8.41,5.93,14.69,14.69,0,0,1-2.16,19.7,15.16,15.16,0,0,1-10.11,4c-3,0-5-2.72-3.84-5.31a4.23,4.23,0,0,1,3.55-2.37A12.32,12.32,0,0,0,72.76,70a7.22,7.22,0,0,0,1.88-11,8.9,8.9,0,0,0-6.42-2.94,3.86,3.86,0,0,1-3.86-3.86v0a102.67,102.67,0,0,1-.13-10.38,18.39,18.39,0,0,1,7.89-13.7A19.16,19.16,0,0,1,84,24.28,19.77,19.77,0,0,1,103.78,42.9c.14,2.48-.7,4-2.57,4.72a3.87,3.87,0,0,1-5.09-2,4,4,0,0,1-.31-1.52A11.92,11.92,0,0,0,78.07,33.9a11.29,11.29,0,0,0-6,10.21v1.61Z"/></g></g><g id="Layer_2-3" data-name="Layer 2"><g id="Layer_1-2-3" data-name="Layer 1-2"><path class="cls-2" d="M58.74,144.26c1.57-5.24,3-10,4.42-14.71,1.17-3.88,1.19-3.87,5.76-3.16.92,7.7,1.86,15.47,2.82,23.47H67.08l-1.76-14.19-.42-.12c-.61,2.12-1.26,4.24-1.85,6.37s-1.2,4.09-1.57,6.17c-.33,1.84-1.42,2-3,2s-2.49-.4-2.9-2.11a92,92,0,0,0-3.8-12.23c-.55,4.72-1.13,9.39-1.72,14.18H45.49q1.38-11.85,2.74-23.48c4.46-.92,4.65-.81,5.85,3.17Q56,136,57.94,142.3C58.09,142.81,58.34,143.29,58.74,144.26Z"/><path class="cls-2" d="M141.73,126.27h4.77v23.58c-2.39.64-4,.25-5.37-2.06a114.77,114.77,0,0,0-8.68-12.7V150h-4.8V126.39c2.42-.69,4-.27,5.39,2a116.8,116.8,0,0,0,8.68,12.71Z"/><path class="cls-2" d="M98.59,149.76c-4.6.83-4.55.8-6.08-3.18a2.69,2.69,0,0,0-1.77-1.47,31.51,31.51,0,0,0-4.66-.07h-2c-.82,1.77-1.24,3.71-2.42,4.83-.73.69-2.63.12-4.34.12,1.5-4.73,2.95-9.27,4.38-13.81.87-2.72,1.75-5.43,2.54-8.2.39-1.38,1.08-2.06,2.59-1.88,1,.11,2-.1,2.94.07.61.11,1.5.54,1.66,1C93.83,134.63,96.16,142.13,98.59,149.76Zm-7.67-9c-1-3.44-1.88-6.66-2.8-9.88l-.44.05-2.75,9.83Z"/><path class="cls-2" d="M16.13,126.12v4.3H9.78c-5,0-5.28.34-4.64,5.69H14.5v4H5.39c-1.25,4.84-.49,5.83,4,5.83h6.73v4.42c-3.57,0-7,.14-10.56,0-4.07-.19-5.47-1.81-5.5-5.94S0,136,0,131.82c0-3.84,1.73-5.61,5.52-5.69C9,126.06,12.41,126.12,16.13,126.12Z"/><path class="cls-1" d="M104.12,145.92c2.66,0,5.2.1,7.71,0,1.83-.08,3.71-.31,3.62-2.94s-1.84-2.81-3.73-2.88c-1.7-.07-3.41,0-5.3,0v-3.78a45.13,45.13,0,0,0,6.43-.69,3.74,3.74,0,0,0,2.21-2.26,2.09,2.09,0,0,0-2-2.77c-2.75-.26-5.52-.33-8.28-.49-.83-3.37-.74-3.53,2.65-3.87a57.65,57.65,0,0,1,5.87-.39c3.38,0,5.57,1.29,6.26,3.71.84,3,.91,6.55-1.75,8.17.79,1.48,2,2.85,2.29,4.39,1,5.43-1.48,8.24-7,8.24a60,60,0,0,1-6.14-.37C103.73,149.67,103.73,149.64,104.12,145.92Z"/><path class="cls-2" d="M38.45,130.19h-8c-1.91,0-3.11.74-3.19,2.87s1.28,2.77,3.11,2.87h.74c6.92-.43,8.52,3.31,7.83,9-.34,2.78-1.63,4.61-4.34,4.89a54.55,54.55,0,0,1-10.46-.16c-.63-.05-1.09-2.07-1.83-3.68h9.07c1.63,0,2.93-.54,3.09-2.43s-.54-3-2.56-3.06a28.61,28.61,0,0,1-4.62-.38c-3.26-.7-4.5-2.38-4.63-6-.17-4.56.9-7.16,4.06-7.66a42.48,42.48,0,0,1,10.2.08C37.45,126.64,37.84,128.69,38.45,130.19Z"/><path class="cls-2" d="M165,149.89c-.83.1-1.29.19-1.77.2h-3.33c1.52-9.11-4.67-15.79-6.93-23.7,4.43-.78,4.48-.75,6.06,3.07,1.08,2.63,2.17,5.26,3.49,8.46l3.45-8.49c1.49-3.65,1.49-3.65,5.81-3.07C169.68,134.3,163.24,140.91,165,149.89Z"/></g></g><g id="Layer_2-4" data-name="Layer 2"><g id="Layer_1-2-4" data-name="Layer 1-2"><g class="cls-3"><text class="cls-4" transform="translate(9.4 180.9)"><tspan xml:space="preserve">You talk  ... We listen</tspan></text></g></g></g></g></g></svg>