<svg viewBox="0 0 71.9 107.02" xmlns="http://www.w3.org/2000/svg"><path d="m33.44 0c7.77-.08 13.26 1.14 18.4 3.66a35.53 35.53 0 0 1 13.25 11.12 33.85 33.85 0 0 1 6.27 14.78 42.63 42.63 0 0 1 -1.66 20.26 39 39 0 0 1 -12.12 17.53c-3.38 2.89-6.81 5.73-10.15 8.65a21.43 21.43 0 0 0 -5.53 7.2 14.71 14.71 0 0 0 -1.22 6.37c.1 7.38-5.08 13.8-11.7 16.23a22.63 22.63 0 0 1 -10.85 1c-5.62-.71-10.69-4.68-13.51-9.5a14 14 0 0 1 -1.22-2.48 4.5 4.5 0 0 1 -.2-2.64 3.83 3.83 0 0 1 4.09-2.68c3.08.37 3.45 3.44 4.91 5.55a11.23 11.23 0 0 0 5.8 4.28 12.39 12.39 0 0 0 8.33-.33c4-1.59 6.53-4.8 6.49-9.26-.07-7.88 3.44-13.94 9-19 3-2.77 6.27-5.33 9.37-8a36.75 36.75 0 0 0 9.18-11.11 31.68 31.68 0 0 0 3.11-11.15 32.27 32.27 0 0 0 -.26-9.46 27.13 27.13 0 0 0 -11.28-17.53 27.16 27.16 0 0 0 -10.88-4.61 27.13 27.13 0 0 0 -18.24 2.75c-8.67 4.69-13.56 12-14.67 21.78a3.88 3.88 0 0 1 -4.36 3.73 4.1 4.1 0 0 1 -3.79-4.23 34 34 0 0 1 2.45-10.7 35.66 35.66 0 0 1 18.17-18.93 35.78 35.78 0 0 1 12.82-3.28z" fill="#f39022"/><path d="m22.2 45.72v2.15a1.11 1.11 0 0 0 .95 1.27 15.65 15.65 0 0 1 8.41 5.93 14.69 14.69 0 0 1 -2.16 19.7 15.19 15.19 0 0 1 -10.11 4c-3 0-5.05-2.72-3.84-5.31a4.23 4.23 0 0 1 3.55-2.37 12.57 12.57 0 0 0 3.84-1.09c3.94-2 4.87-7.77 1.88-11a8.88 8.88 0 0 0 -6.42-2.94 3.86 3.86 0 0 1 -3.86-3.9 102.81 102.81 0 0 1 -.13-10.38 18.38 18.38 0 0 1 7.89-13.7 19.14 19.14 0 0 1 11.91-3.8 19.76 19.76 0 0 1 19.75 18.62c.14 2.48-.7 4-2.57 4.72a3.87 3.87 0 0 1 -5.4-3.54 11.34 11.34 0 0 0 -5.55-9.86 11.45 11.45 0 0 0 -12.19-.32 11.3 11.3 0 0 0 -6 10.21v1.61z" fill="#1d73b5"/></svg>