<svg viewBox="0 0 316.49 230.65" xmlns="http://www.w3.org/2000/svg"><g fill="#1d73b5"><path d="m108.24 156.17c2.9-9.66 5.5-18.4 8.14-27.12 2.17-7.14 2.2-7.13 10.62-5.77 1.7 14.18 3.43 28.51 5.2 43.25h-8.58c-1.07-8.63-2.16-17.4-3.25-26.16l-.77-.22c-1.14 3.91-2.33 7.81-3.42 11.74-1 3.77-2.21 7.54-2.89 11.38-.61 3.39-2.62 3.67-5.46 3.75-3 .08-4.59-.75-5.34-3.9a169.79 169.79 0 0 0 -7-22.54c-1.06 8.63-2.13 17.25-3.22 26.1h-8.5q2.55-21.85 5.06-43.28c8.22-1.7 8.56-1.5 10.78 5.85q3.52 11.66 7.11 23.31c.33.93.78 1.81 1.52 3.61z"/><path d="m261.21 123h8.79v43.45c-4.41 1.17-7.43.46-9.9-3.8a210.53 210.53 0 0 0 -16-23.4v27.38h-8.84v-43.39c4.45-1.27 7.44-.51 9.92 3.73a217.52 217.52 0 0 0 16 23.43z"/><path d="m181.69 166.3c-8.48 1.53-8.39 1.49-11.21-5.86a5 5 0 0 0 -3.25-2.72 61.45 61.45 0 0 0 -8.59-.13h-3.75c-1.52 3.29-2.28 6.85-4.46 8.91-1.34 1.27-4.85.24-8 .24 2.77-8.73 5.43-17.1 8.08-25.48 1.59-5 3.22-10 4.67-15.1.73-2.54 2-3.81 4.78-3.47 1.79.22 3.67-.18 5.42.14 1.13.2 2.76 1 3.06 1.88 4.47 13.71 8.78 27.48 13.25 41.59zm-14.14-16.65c-1.79-6.34-3.47-12.27-5.15-18.19l-.82.08-5.06 18.11z"/><path d="m29.7 122.73v7.92h-11.7c-9.18 0-9.74.64-8.55 10.5h17.24v7.32h-16.79c-2.29 8.92-.92 10.78 7.3 10.79h12.41v8.14c-6.58 0-13 .24-19.46-.06-7.51-.34-10.08-3.34-10.15-10.96s0-15.38.05-23.12c.06-7.09 3.19-10.35 10.16-10.5 6.32-.13 12.64-.03 19.49-.03z"/></g><path d="m191.88 159.24c4.91 0 9.58.16 14.22-.06 3.37-.16 6.84-.57 6.67-5.41-.16-4.63-3.4-5.18-6.88-5.32-3.14-.12-6.29 0-9.76 0v-6.89c3.87-.36 8-.36 11.85-1.28a6.87 6.87 0 0 0 4.07-4.16c.81-2.64-.85-4.83-3.71-5.11-5.07-.48-10.18-.62-15.26-.9-1.52-6.22-1.36-6.51 4.89-7.14a100.43 100.43 0 0 1 10.81-.71c6.23 0 10.27 2.38 11.54 6.82 1.56 5.48 1.68 12.09-3.23 15.08 1.47 2.71 3.7 5.24 4.23 8.08 1.84 10-2.73 15.18-13 15.2a111.75 111.75 0 0 1 -11.26-.7c-5.9-.6-5.89-.67-5.18-7.5z" fill="#f39022"/><path d="m70.84 130.26h-14.77c-3.52 0-5.72 1.37-5.87 5.28-.16 4.14 2.36 5.11 5.73 5.29a10.29 10.29 0 0 0 1.36 0c12.76-.77 15.71 6.17 14.43 16.65-.62 5.13-3 8.5-8 9a101.82 101.82 0 0 1 -19.28-.28c-1.16-.12-2-3.82-3.37-6.8h16.73c3 0 5.39-1 5.69-4.47s-1-5.51-4.72-5.64a49.32 49.32 0 0 1 -8.52-.72c-6-1.27-8.29-4.37-8.53-10.95-.31-8.39 1.65-13.2 7.49-14.11 6.12-1 12.55-.45 18.78.14 1.01.04 1.72 3.82 2.85 6.61z" fill="#1d73b5"/><path d="m304 166.55c-1.52.17-2.38.34-3.25.36-1.8.05-3.59 0-6.15 0 2.84-16.8-8.54-29.12-12.74-43.66 8.14-1.48 8.25-1.42 11.16 5.62 2 4.85 4 9.69 6.43 15.6l6.37-15.66c2.73-6.73 2.73-6.72 10.7-5.65-3.79 14.66-15.67 26.84-12.52 43.39z" fill="#1d73b5"/><text fill="#f39022" font-family="SimplifiedArabic, Simplified Arabic" font-size="29.11" transform="translate(21.21 203.29)"><tspan xml:space="preserve">You talk  .. We listen</tspan></text><path d="m155.73 0c7.78-.08 13.27 1.14 18.41 3.66a35.5 35.5 0 0 1 13.24 11.12 33.85 33.85 0 0 1 6.27 14.78 42.5 42.5 0 0 1 -1.65 20.26 39 39 0 0 1 -12.12 17.53c-3.37 2.89-6.8 5.73-10.14 8.66a21.46 21.46 0 0 0 -5.54 7.19 14.86 14.86 0 0 0 -1.2 6.37c.1 7.38-5.08 13.8-11.7 16.23a22.63 22.63 0 0 1 -10.85 1c-5.62-.71-10.68-4.68-13.5-9.5a14 14 0 0 1 -1.23-2.45 4.58 4.58 0 0 1 -.2-2.64 3.84 3.84 0 0 1 4.09-2.68c3.08.37 3.45 3.44 4.92 5.55a11.23 11.23 0 0 0 5.79 4.28 12.39 12.39 0 0 0 8.34-.35c4-1.59 6.52-4.8 6.48-9.26-.07-7.88 3.44-13.94 9-19 3-2.77 6.28-5.33 9.37-8a36.75 36.75 0 0 0 9.18-11.11 31.47 31.47 0 0 0 3.11-11.15 31.6 31.6 0 0 0 -.26-9.46 27.91 27.91 0 0 0 -40.44-19.29c-8.67 4.69-13.56 12-14.67 21.78a3.87 3.87 0 0 1 -4.35 3.73 4.1 4.1 0 0 1 -3.79-4.23 33.69 33.69 0 0 1 2.46-10.7 35.66 35.66 0 0 1 18.17-19.04 35.69 35.69 0 0 1 12.81-3.28z" fill="#f39022"/><path d="m144.5 45.72v2.15a1.09 1.09 0 0 0 .95 1.27 15.63 15.63 0 0 1 8.4 5.93 14.68 14.68 0 0 1 -2.16 19.7 15.14 15.14 0 0 1 -10.1 4c-3 0-5.06-2.72-3.85-5.31a4.24 4.24 0 0 1 3.58-2.32 12.59 12.59 0 0 0 3.81-1.14c3.94-2 4.87-7.77 1.88-11a8.86 8.86 0 0 0 -6.41-2.94 3.86 3.86 0 0 1 -3.87-3.9 102.81 102.81 0 0 1 -.13-10.38 18.42 18.42 0 0 1 7.9-13.69 19.12 19.12 0 0 1 11.91-3.8 19.76 19.76 0 0 1 19.75 18.61c.13 2.48-.7 4-2.58 4.72a3.87 3.87 0 0 1 -5.4-3.54 11.89 11.89 0 0 0 -23.77 0v1.61z" fill="#1d73b5"/></svg>